<?xml version="1.0" standalone="no"?>
<!DOCTYPE svg>
<svg version="1.0" xmlns="http://www.w3.org/2000/svg"
 width="512.000000pt" height="512.000000pt" viewBox="0 0 512.000000 512.000000"
 preserveAspectRatio="xMidYMid meet">

<g transform="translate(0.000000,512.000000) scale(0.100000,-0.100000)"
fill="#000000" stroke="none">
<path d="M2380 5105 c-344 -55 -657 -284 -816 -597 -33 -66 -35 -68 -91 -84
-239 -67 -391 -125 -551 -210 -251 -132 -409 -276 -492 -449 -119 -247 -59
-492 173 -712 107 -101 208 -168 382 -254 114 -56 337 -138 503 -185 6 -2 12
-9 12 -16 -1 -7 -60 -253 -133 -547 l-132 -534 -55 -29 c-69 -35 -106 -78
-126 -147 -50 -170 103 -332 276 -291 107 26 180 119 180 229 -1 73 -26 127
-82 177 l-45 39 193 780 c106 429 190 783 186 786 -4 4 -29 12 -57 18 -27 7
-57 14 -66 16 -12 4 -20 -15 -38 -92 l-24 -97 -22 28 c-103 129 -3 275 263
386 67 29 252 83 259 76 2 -1 -51 -221 -117 -487 -65 -266 -116 -487 -112
-490 12 -11 132 -37 136 -30 3 4 61 238 131 521 70 283 128 516 129 517 2 2
74 8 160 14 114 8 199 8 309 0 83 -6 153 -13 155 -16 2 -2 71 -273 152 -602
80 -329 151 -598 156 -598 32 0 134 28 134 36 0 10 -267 1103 -275 1127 -4 10
3 12 28 7 191 -42 378 -127 466 -213 73 -72 91 -122 67 -186 -9 -23 -25 -52
-35 -65 l-18 -24 -23 94 c-13 52 -23 95 -24 96 -1 1 -33 -6 -71 -16 -60 -15
-70 -21 -68 -38 2 -21 699 -2856 708 -2880 3 -10 -302 -13 -1504 -13 l-1508 0
92 374 92 375 -69 17 c-38 9 -71 14 -75 11 -3 -3 -54 -205 -114 -449 -60 -244
-112 -451 -115 -460 -5 -17 80 -18 1696 -18 1616 0 1701 1 1696 18 -27 86
-635 2579 -632 2589 3 7 12 13 19 13 18 0 175 48 277 85 41 15 130 53 198 86
385 183 611 431 629 691 21 287 -186 553 -587 753 -151 76 -277 122 -553 201
-10 3 -33 36 -51 72 -219 431 -695 673 -1176 597z m414 -165 c227 -58 424
-194 557 -383 27 -39 48 -71 47 -72 -2 -1 -50 6 -108 16 -233 39 -425 53 -735
53 -309 0 -485 -13 -723 -53 -59 -10 -108 -17 -110 -16 -1 1 20 33 47 71 156
222 393 365 676 408 68 10 272 -3 349 -24z m226 -555 c773 -83 1367 -349 1534
-687 163 -329 -136 -668 -781 -884 -73 -24 -137 -44 -144 -44 -6 0 7 21 31 46
200 217 76 490 -292 639 -610 248 -1579 156 -1897 -180 -137 -145 -141 -318
-11 -459 24 -25 38 -46 32 -46 -22 0 -250 79 -347 120 -288 122 -499 288 -581
456 -37 75 -39 84 -39 175 0 90 2 99 39 175 31 63 58 98 130 170 102 101 186
159 343 238 188 94 415 169 663 219 198 41 343 59 635 81 106 8 547 -4 685
-19z m-1685 -3050 c37 -36 34 -86 -7 -120 -35 -30 -79 -29 -110 3 -32 31 -33
75 -3 110 34 41 84 44 120 7z"/>
<path d="M2500 4231 c-110 -36 -172 -119 -172 -232 0 -65 23 -118 74 -166 145
-139 390 -34 390 166 0 94 -46 172 -125 212 -44 23 -128 33 -167 20z m99 -156
c33 -16 41 -33 41 -80 0 -40 -38 -75 -80 -75 -86 0 -112 116 -35 158 27 15 41
15 74 -3z"/>
<path d="M1620 4071 c-210 -64 -240 -340 -47 -436 159 -79 336 31 337 208 0
106 -63 192 -166 223 -51 15 -85 17 -124 5z m93 -153 c79 -41 52 -158 -36
-158 -85 0 -113 119 -37 157 31 16 46 16 73 1z"/>
<path d="M3370 4065 c-99 -32 -160 -117 -160 -222 1 -177 179 -287 337 -208
172 86 171 328 0 416 -51 27 -122 32 -177 14z m134 -165 c28 -28 26 -83 -4
-115 -50 -53 -140 -16 -140 57 1 78 89 113 144 58z"/>
<path d="M985 3751 c-109 -27 -179 -116 -180 -231 0 -53 5 -73 28 -112 122
-207 436 -126 437 113 0 151 -141 265 -285 230z m113 -173 c31 -29 30 -81 -3
-113 -65 -65 -173 9 -133 91 26 56 89 65 136 22z"/>
<path d="M4014 3746 c-169 -55 -220 -272 -93 -393 128 -121 344 -59 390 111
46 171 -129 337 -297 282z m128 -163 c36 -33 31 -98 -11 -130 -27 -21 -79 -15
-106 12 -44 43 -26 115 35 138 21 8 62 -2 82 -20z"/>
<path d="M1040 4880 l0 -80 -80 0 -80 0 0 -75 0 -75 80 0 79 0 3 -82 3 -83 73
-3 72 -3 0 86 0 85 85 0 85 0 0 75 0 75 -85 0 -85 0 0 80 0 80 -75 0 -75 0 0
-80z"/>
<path d="M4247 4786 c-58 -21 -103 -61 -131 -118 -100 -201 111 -412 312 -312
59 29 94 70 117 133 30 85 13 159 -52 231 -65 73 -157 97 -246 66z m134 -165
c17 -18 29 -40 29 -56 0 -38 -50 -85 -90 -85 -42 0 -80 39 -80 82 1 80 85 115
141 59z"/>
<path d="M4248 2478 l-3 -83 -83 -3 -83 -3 3 -72 3 -72 83 -3 82 -3 0 -79 0
-80 75 0 75 0 0 80 0 80 80 0 80 0 0 75 0 75 -80 0 -80 0 0 85 0 85 -75 0 -74
0 -3 -82z"/>
<path d="M2160 2075 l0 -75 80 0 80 0 0 75 0 75 -80 0 -80 0 0 -75z"/>
<path d="M2480 2075 l0 -75 80 0 80 0 0 75 0 75 -80 0 -80 0 0 -75z"/>
<path d="M2800 2075 l0 -75 80 0 80 0 0 75 0 75 -80 0 -80 0 0 -75z"/>
<path d="M1680 1560 l0 -280 160 0 160 0 0 -200 0 -200 75 0 75 0 0 480 0 480
-75 0 -75 0 0 -205 0 -206 -82 3 -83 3 -3 203 -2 202 -75 0 -75 0 0 -280z"/>
<path d="M2970 1560 l0 -280 160 0 160 0 0 -200 0 -200 75 0 75 0 0 480 0 480
-75 0 -75 0 -2 -202 -3 -203 -82 -3 -83 -3 0 206 0 205 -75 0 -75 0 0 -280z"/>
<path d="M2322 1358 l3 -473 235 0 235 0 3 473 2 472 -240 0 -240 0 2 -472z
m326 0 l-3 -323 -85 0 -85 0 -3 323 -2 322 90 0 90 0 -2 -322z"/>
</g>
</svg>
